<svg width="58" height="58" viewBox="0 0 58 58" fill="none" xmlns="http://www.w3.org/2000/svg">
<path d="M15.7084 44.7083H42.2917M15.7084 36.25H42.2917M35.4864 3.72167C36.5703 4.06 40.0503 5.43992 45.077 10.3421C49.8136 14.9616 51.3446 18.2422 51.7941 19.4892C51.8944 22.1971 51.9584 25.3508 51.9584 29C51.9584 38.7452 51.5053 44.9548 51.092 48.5919C50.79 51.2527 48.7926 53.2416 46.1342 53.5521C42.7328 53.9497 37.1769 54.375 29.0001 54.375C20.8233 54.375 15.2674 53.9497 11.8659 53.5533C9.20758 53.2416 7.21021 51.2527 6.90812 48.5919C6.49487 44.9548 6.04175 38.744 6.04175 29C6.04175 19.256 6.49487 13.0452 6.90812 9.40808C7.21021 6.74733 9.20758 4.75842 11.8659 4.44667C15.2674 4.05154 20.8233 3.625 29.0001 3.625C31.3805 3.625 33.5386 3.66125 35.4864 3.72167Z" stroke="#3A3A3A" stroke-width="3.625" stroke-linecap="round" stroke-linejoin="round"/>
<path d="M15.7085 27.6322C18.8163 22.8834 21.4082 20.7978 22.8328 19.923C23.5059 19.5086 24.3191 19.7792 24.6695 20.4885C25.4706 22.1137 26.2282 24.3467 26.7684 26.1193C27.0874 27.1585 28.605 27.3821 29.2732 26.5241C31.963 23.0731 35.646 19.9375 35.646 19.9375M40.5603 22.1367C41.092 19.3285 41.1125 16.8647 41.0678 15.5597C41.0602 15.2851 40.9478 15.0238 40.7537 14.8295C40.5595 14.6351 40.2984 14.5224 40.0238 14.5145C37.8192 14.4478 35.6139 14.6179 33.4456 15.022C32.5345 15.1948 32.2325 16.3053 32.8898 16.9614L38.6221 22.6949C39.2782 23.3511 40.3875 23.0478 40.5603 22.1367Z" stroke="#3A3A3A" stroke-width="3.625" stroke-linecap="round" stroke-linejoin="round"/>
</svg>
