<svg width="58" height="58" viewBox="0 0 58 58" fill="none" xmlns="http://www.w3.org/2000/svg">
<path d="M4.83333 37.6396C3.50417 37.6396 2.36672 37.1668 1.421 36.221C0.475277 35.2753 0.00161111 34.1371 0 32.8063V27.973C0 27.2882 0.232 26.7147 0.696 26.2523C1.16 25.7899 1.73356 25.5579 2.41667 25.5563C3.09978 25.5547 3.67414 25.7867 4.13975 26.2523C4.60536 26.7179 4.83656 27.2915 4.83333 27.973V32.8063H33.8333V27.973C33.8333 27.2882 34.0653 26.7147 34.5293 26.2523C34.9933 25.7899 35.5669 25.5579 36.25 25.5563C36.9331 25.5547 37.5075 25.7867 37.9731 26.2523C38.4387 26.7179 38.6699 27.2915 38.6667 27.973V32.8063C38.6667 34.1355 38.1938 35.2737 37.2481 36.221C36.3024 37.1684 35.1641 37.6412 33.8333 37.6396H4.83333ZM16.9167 8.27712L12.3854 12.8084C11.9021 13.2917 11.3285 13.5237 10.6648 13.5044C10.001 13.485 9.42661 13.2329 8.94167 12.748C8.49861 12.2646 8.26661 11.7007 8.24567 11.0563C8.22472 10.4118 8.45672 9.84795 8.94167 9.36462L17.6417 0.66462C17.8833 0.422953 18.1451 0.252175 18.4271 0.152287C18.709 0.0523976 19.0111 0.00164829 19.3333 3.718e-05C19.6556 -0.00157393 19.9576 0.0491754 20.2396 0.152287C20.5215 0.255398 20.7833 0.426175 21.025 0.66462L29.725 9.36462C30.2083 9.84795 30.4403 10.4118 30.421 11.0563C30.4017 11.7007 30.1697 12.2646 29.725 12.748C29.2417 13.2313 28.6681 13.4834 28.0043 13.5044C27.3406 13.5253 26.7662 13.2933 26.2812 12.8084L21.75 8.27712V25.5563C21.75 26.241 21.518 26.8154 21.054 27.2794C20.59 27.7434 20.0164 27.9746 19.3333 27.973C18.6502 27.9713 18.0767 27.7393 17.6127 27.277C17.1487 26.8146 16.9167 26.241 16.9167 25.5563V8.27712Z" fill="#3A3A3A"/>
</svg>
